<?xml version="1.0" encoding="UTF-8"?>
<svg width="17px" height="24px" viewBox="0 0 17 24" version="1.1" xmlns="http://www.w3.org/2000/svg" xmlns:xlink="http://www.w3.org/1999/xlink">
    <!-- Generator: Sketch 46.2 (44496) - http://www.bohemiancoding.com/sketch -->
    <title>Bounty</title>
    <desc>Created with Sketch.</desc>
    <defs></defs>
    <g id="Page-1" stroke="none" stroke-width="1" fill="none" fill-rule="evenodd">
        <g id="Bounty-Home" transform="translate(-136.000000, -825.000000)" fill="#000000">
            <g id="Group-5" transform="translate(90.000000, 627.000000)">
                <g id="Group-3" transform="translate(46.000000, 198.000000)">
                    <path d="M15.8244752,0.600929438 L13.4207574,0.600929438 C13.4207574,0.280121254 13.1406362,-1.13686838e-13 12.819828,-1.13686838e-13 L3.60557663,-1.13686838e-13 C3.28476844,-1.13686838e-13 3.00464719,0.240996742 3.00464719,0.600929438 L0.600929438,0.600929438 C0.280121254,0.600929438 0,0.881050692 0,1.20185888 L0,6.25046739 C0,8.45387533 1.64318145,10.2975268 3.76518348,10.57756 C4.60712569,11.8999252 5.96859142,12.8216709 7.61177288,13.0219807 L7.61177288,15.0250788 L4.4866193,15.0250788 C4.16581112,15.0250788 3.88568987,15.3052 3.88568987,15.6260082 L3.88568987,17.0688799 L2.3630148,17.0688799 C2.04220661,17.0688799 1.76208536,17.3490011 1.76208536,17.6698093 L1.76208536,23.3990706 C1.76208536,23.7198787 2.04220661,24 2.3630148,24 L14.0607072,24 C14.3815154,24 14.6616367,23.7198787 14.6616367,23.3990706 L14.6632031,17.7074675 C14.6632031,17.3866594 14.3830818,17.1065381 14.0622736,17.1065381 L12.5395986,17.1065381 L12.5395986,15.6636665 C12.5395986,15.3428583 12.2594773,15.062737 11.9386691,15.062737 L8.81351557,15.062737 L8.81351557,13.0596389 C10.456697,12.8593291 11.8181628,11.9375835 12.660105,10.6152182 C14.7837095,10.29441 16.4252884,8.4916137 16.4252884,6.28812563 L16.4252884,1.20225949 C16.4252884,0.842326799 16.1451672,0.601330057 15.824359,0.601330057 L15.8244752,0.600929438 Z M1.20185888,6.25046739 L1.20185888,1.80278831 L3.00464719,1.80278831 L3.00464719,7.89180599 C3.00464719,8.37222905 3.08445863,8.81355163 3.16427007,9.21417125 C2.00311415,8.69304524 1.2018749,7.5709898 1.2018749,6.25022702 L1.20185888,6.25046739 Z M13.4616206,18.3083169 L13.4616206,22.8357192 L2.96418461,22.8357192 L2.96418461,18.3083169 L13.4616206,18.3083169 Z M11.3380161,16.2660782 L11.3380161,17.1080204 L5.08754874,17.106454 L5.08754874,16.2645118 L11.3380161,16.2660782 Z M12.2190588,7.85306608 C12.2190588,10.056474 10.4162705,11.8592623 8.21286256,11.8592623 C6.00945462,11.8592623 4.20666631,10.056474 4.20666631,7.85306608 L4.20666631,1.20197906 L12.2190588,1.20197906 L12.2190588,7.85306608 Z M15.223706,6.25058758 C15.223706,7.57295283 14.4224667,8.69500828 13.2613108,9.17543133 C13.3818092,8.73410875 13.4209337,8.29438865 13.4209337,7.85306608 L13.4209337,1.8029085 L15.1830191,1.8029085 L15.1830191,6.25058758 L15.223706,6.25058758 Z" id="Bounty"></path>
                </g>
            </g>
        </g>
    </g>
</svg>
