<?xml version="1.0" encoding="UTF-8"?>
<svg width="20px" height="20px" viewBox="0 0 20 20" version="1.1" xmlns="http://www.w3.org/2000/svg" xmlns:xlink="http://www.w3.org/1999/xlink">
    <!-- Generator: Sketch 46.2 (44496) - http://www.bohemiancoding.com/sketch -->
    <title>Check</title>
    <desc>Created with Sketch.</desc>
    <defs></defs>
    <g id="Page-1" stroke="none" stroke-width="1" fill="none" fill-rule="evenodd">
        <g id="Bounty-Home" transform="translate(-1183.000000, -24.000000)" fill="#7ED321">
            <g id="Group-4" transform="translate(90.000000, 20.000000)">
                <g id="Group-2" transform="translate(1093.000000, 4.000000)">
                    <path d="M10,20 C4.4745,20 0,15.5255 0,10 C0,4.4745 4.4745,0 10,0 C15.5255,0 20,4.4745 20,10 C20,15.5255 15.5255,20 10,20 Z M15.5258878,6.91399131 C15.1159605,6.58422512 14.4760889,6.58422512 14.0671853,6.91399131 L8.94821253,11.2525485 L6.69565974,9.17809183 C6.31173678,8.82436666 5.67186518,8.82436666 5.28794222,9.17809183 C4.90401926,9.53181701 4.90401926,10.121359 5.28794222,10.4750841 L8.10337726,13.0690688 C8.33333176,13.280936 8.61527454,13.3518603 8.92220815,13.3288445 C9.22914176,13.3527941 9.53607537,13.2818651 9.76704342,13.0930277 L15.5258878,8.16398534 C15.9358152,7.81026016 15.9358152,7.2676929 15.5258878,6.91396773 L15.5258878,6.91399131 Z" id="Check"></path>
                </g>
            </g>
        </g>
    </g>
</svg>