<?xml version="1.0" encoding="UTF-8"?>
<svg width="15px" height="20px" viewBox="0 0 15 20" version="1.1" xmlns="http://www.w3.org/2000/svg" xmlns:xlink="http://www.w3.org/1999/xlink">
    <!-- Generator: Sketch 46.2 (44496) - http://www.bohemiancoding.com/sketch -->
    <title>Claim</title>
    <desc>Created with Sketch.</desc>
    <defs></defs>
    <g id="Page-1" stroke="none" stroke-width="1" fill="none" fill-rule="evenodd">
        <g id="Bounty-Home" transform="translate(-262.000000, -827.000000)" fill="#ffffff">
            <g id="Group-5" transform="translate(90.000000, 627.000000)">
                <g id="Group-3" transform="translate(46.000000, 198.000000)">
                    <path d="M137.047733,7.58765397 L140.730908,3.33432063 C140.921879,3.11234603 140.985124,2.7626381 140.857397,2.47743175 C140.730908,2.1922127 140.444444,2.00124127 140.126984,2.00124127 L127.587302,2 L126,2 L126,22 L127.587302,22 L127.587302,13.1111111 L140.126984,13.1111111 C140.444444,13.1111111 140.729651,12.9201397 140.857397,12.6349206 C140.983886,12.3497016 140.952883,12.032254 140.730908,11.7780317 L137.047733,7.58765397 Z M127.587098,11.5559079 L127.587098,3.6194 L138.380749,3.6194 L135.39713,7.07908254 C135.142914,7.36430159 135.142914,7.80949524 135.39713,8.12695556 L138.380749,11.5866381 L127.587098,11.5878794 L127.587098,11.5559079 Z" id="Claim"></path>
                </g>
            </g>
        </g>
    </g>
</svg>
